<?xml version="1.0" standalone="no"?>
<!DOCTYPE svg PUBLIC "-//W3C//DTD SVG 20010904//EN"
 "http://www.w3.org/TR/2001/REC-SVG-20010904/DTD/svg10.dtd">
<svg version="1.0" xmlns="http://www.w3.org/2000/svg"
 width="465.000000pt" height="492.861907pt" viewBox="0 0 465.000000 492.861907"
 preserveAspectRatio="xMidYMid meet">
<metadata>
Created by potrace 1.12, written by Peter Selinger 2001-2015
</metadata>
<g transform="translate(-18.000000,509.000000) scale(0.100000,-0.100000)"
fill="#000000" stroke="none">
<path d="M1903 4967 c-35 -68 -65 -137 -69 -154 -8 -40 32 -182 57 -205 11 -9
41 -19 68 -23 58 -8 113 15 155 65 23 28 26 40 26 106 0 80 -3 89 -56 172 -80
123 -107 162 -113 162 -3 0 -34 -55 -68 -123z"/>
<path d="M3015 4935 c-61 -43 -84 -90 -85 -168 0 -66 13 -96 73 -167 23 -27
52 -63 65 -80 38 -49 74 -42 151 28 l63 57 5 107 c6 107 6 107 -25 155 -40 61
-86 92 -148 99 -44 5 -54 2 -99 -31z"/>
<path d="M180 4547 c0 -7 4 -17 9 -22 5 -6 18 -37 30 -69 12 -33 44 -87 70
-120 27 -34 69 -92 93 -131 49 -76 179 -206 243 -245 22 -13 105 -69 185 -124
88 -61 212 -134 315 -187 94 -47 213 -108 265 -136 52 -28 154 -72 225 -99 72
-27 164 -65 206 -85 l75 -37 24 -98 c27 -115 34 -250 49 -1004 6 -261 15 -529
21 -595 7 -82 7 -152 0 -221 -7 -70 -7 -131 0 -196 7 -65 7 -122 0 -184 -13
-116 9 -354 40 -438 12 -31 25 -56 29 -56 10 0 43 91 59 161 6 25 14 183 17
350 3 167 10 340 15 384 5 44 14 123 20 175 48 445 48 436 55 1040 4 327 11
603 17 613 13 25 64 21 103 -9 96 -73 121 -206 136 -724 10 -339 7 -422 -21
-600 -5 -30 -9 -80 -9 -111 -1 -31 -10 -81 -20 -112 -11 -31 -25 -94 -32 -138
-13 -93 -7 -146 42 -339 55 -216 89 -400 109 -590 5 -52 17 -151 25 -220 8
-69 15 -146 15 -172 0 -67 17 -60 25 9 3 32 10 76 15 98 17 75 40 304 40 405
0 91 3 106 29 158 36 72 58 180 71 352 12 169 13 519 0 800 -11 247 2 842 21
935 25 130 67 186 132 177 23 -3 33 -13 50 -50 28 -63 33 -181 46 -1139 5
-420 12 -766 14 -770 3 -5 10 -141 17 -303 7 -176 17 -315 25 -345 7 -27 16
-77 20 -110 8 -83 15 -115 25 -115 4 0 10 12 13 28 33 182 55 275 91 377 l31
90 1 995 c0 767 4 1012 14 1070 15 89 8 190 -19 275 -23 72 -20 76 73 99 168
40 288 82 406 144 331 172 463 258 633 416 189 175 265 271 348 441 63 130
119 274 119 305 0 9 -10 11 -37 6 -21 -4 -81 -14 -133 -22 -137 -20 -162 -25
-187 -30 -17 -3 -27 -21 -48 -86 -35 -105 -66 -146 -280 -370 -166 -174 -173
-180 -288 -244 -119 -65 -150 -77 -356 -134 -86 -23 -130 -30 -180 -28 l-66 3
-6 90 c-4 50 -8 167 -8 260 -2 135 -6 179 -20 215 l-17 45 -50 -3 c-27 -1 -68
-4 -90 -7 l-41 -6 -7 -147 c-16 -367 -22 -448 -33 -468 -17 -31 -125 -61 -258
-74 -201 -19 -234 -15 -371 36 -67 25 -138 59 -158 76 l-36 29 0 217 c-1 268
-17 407 -50 432 -68 51 -179 90 -207 72 -24 -16 -30 -92 -24 -306 1 -38 8 -97
16 -130 21 -91 10 -187 -28 -244 l-30 -44 -76 5 c-110 7 -489 136 -606 207
-33 19 -77 44 -98 55 -86 45 -188 141 -247 232 -39 61 -85 115 -151 176 -123
113 -119 111 -219 135 -47 11 -121 30 -164 41 -93 25 -96 25 -96 8z"/>
<path d="M2529 4528 c-9 -7 -29 -33 -44 -57 -15 -24 -44 -62 -66 -86 -31 -34
-41 -55 -54 -114 -23 -112 -20 -169 13 -222 76 -121 99 -174 106 -243 7 -72
46 -170 70 -179 10 -4 18 17 31 85 18 91 25 104 78 140 52 36 94 166 103 320
7 103 7 103 -24 152 -17 27 -38 73 -47 102 -11 39 -25 60 -49 79 -41 31 -94
42 -117 23z"/>
</g>
</svg>
