<?xml version="1.0" standalone="no"?>
<!DOCTYPE svg PUBLIC "-//W3C//DTD SVG 20010904//EN"
 "http://www.w3.org/TR/2001/REC-SVG-20010904/DTD/svg10.dtd">
<svg version="1.0" xmlns="http://www.w3.org/2000/svg"
 width="226.073756pt" height="511.714230pt" viewBox="0 0 226.073756 511.714230"
 preserveAspectRatio="xMidYMid meet">
<metadata>
Created by potrace 1.12, written by Peter Selinger 2001-2015
</metadata>
<g transform="translate(-10.281484,526.288921) scale(0.100000,-0.100000)"
fill="#000000" stroke="none">
<path d="M1212 5211 c-8 -37 -16 -226 -22 -488 -5 -235 -12 -552 -15 -703 -4
-151 -8 -285 -11 -296 -3 -18 -19 -25 -96 -44 -122 -30 -177 -52 -268 -107
-89 -54 -159 -115 -216 -189 -34 -43 -45 -68 -54 -122 -7 -37 -10 -85 -8 -107
l3 -40 31 55 c73 128 183 234 342 330 72 44 216 102 257 104 l30 1 3 -337 2
-337 -22 -15 c-13 -8 -51 -21 -85 -30 -83 -21 -148 -53 -245 -123 -80 -57
-108 -86 -108 -110 0 -7 17 -29 37 -49 53 -51 297 -165 406 -188 l27 -6 0
-106 c0 -74 4 -114 15 -134 8 -16 19 -60 25 -98 5 -38 12 -77 16 -86 17 -46
24 4 26 205 l3 221 145 52 c80 29 165 65 190 81 74 46 130 96 130 115 0 48
-174 159 -378 241 l-84 34 7 330 c4 181 9 333 11 336 2 4 17 9 34 13 23 4 46
-2 89 -24 32 -16 91 -40 130 -54 165 -57 246 -125 377 -311 98 -141 131 -181
139 -173 8 8 -27 112 -59 176 -32 62 -146 199 -224 265 -82 71 -268 156 -429
197 -37 9 -43 14 -43 38 0 15 -7 135 -15 267 -8 132 -19 377 -25 545 -10 327
-36 710 -48 722 -5 5 -14 -19 -20 -51z m-22 -2418 c-1 -63 -27 -279 -35 -294
-4 -6 -17 -8 -30 -5 -46 12 -271 124 -289 145 -19 21 -19 21 0 42 32 36 284
150 347 158 4 1 7 -20 7 -46z m256 -18 c42 -19 94 -40 115 -46 21 -7 48 -23
61 -36 l22 -23 -35 -30 c-19 -17 -52 -41 -75 -55 -50 -31 -177 -75 -214 -75
l-27 0 3 148 c2 81 3 148 4 150 0 1 16 2 34 2 19 0 69 -16 112 -35z"/>
<path d="M117 2753 c-20 -31 -19 -125 2 -200 37 -139 89 -273 152 -392 53
-102 74 -129 167 -224 159 -161 281 -238 552 -347 52 -21 115 -44 140 -51 l45
-14 7 -590 c7 -601 14 -804 28 -788 4 4 16 35 25 68 44 150 47 182 53 737 7
532 7 538 28 559 16 15 67 32 180 59 88 21 175 46 195 54 20 8 81 49 136 90
91 68 161 139 273 281 47 59 126 216 155 307 13 40 35 107 51 148 25 71 53
192 57 252 4 58 -19 29 -54 -67 -20 -55 -53 -138 -73 -185 -21 -47 -54 -123
-74 -170 -44 -101 -115 -211 -168 -261 -22 -20 -73 -62 -114 -94 -41 -33 -97
-79 -124 -103 -69 -61 -157 -98 -293 -122 -107 -20 -116 -20 -133 -5 -10 9
-37 19 -59 22 -33 5 -45 1 -71 -21 -26 -21 -42 -26 -86 -26 -56 0 -147 29
-219 70 -22 13 -65 36 -95 53 -70 37 -95 55 -202 139 -92 73 -127 115 -221
268 -33 52 -74 115 -92 140 -44 61 -70 123 -110 260 -42 145 -50 166 -58 153z"/>
</g>
</svg>
